<?xml version="1.0" encoding="UTF-8" standalone="no"?> <svg id="Layer_1" data-name="Layer 1" xmlns="http://www.w3.org/2000/svg" viewBox="0 0 128 128"><defs><style>.cls-1{fill:#2e79bd;}.cls-2{fill:#2d3e50;}</style></defs><title>x</title><path class="cls-1" d="M70.709,63.99784a8.04356,8.04356,0,0,1-8.04663-8.0467,8.12574,8.12574,0,0,1,.61868-3.10608A11.17725,11.17725,0,1,0,75.17719,63.99784a10.82128,10.82128,0,0,0-.07739-1.30174A8.00059,8.00059,0,0,1,70.709,63.99784Z"/><path class="cls-2" d="M122.76373,59.67537,92.84688,41.46614a55.48256,55.48256,0,0,0-57.69386,0L5.23617,59.67537a5.06284,5.06284,0,0,0,0,8.64927L35.153,86.53386a55.48256,55.48256,0,0,0,57.69386,0l29.91685-18.20923A5.06273,5.06273,0,0,0,122.76373,59.67537ZM63.99995,83.14413A19.14416,19.14416,0,1,1,83.14414,64,19.14421,19.14421,0,0,1,63.99995,83.14413Z"/></svg>